<svg width="153" height="39" viewBox="0 0 153 39" fill="none" xmlns="http://www.w3.org/2000/svg">
<path fill-rule="evenodd" clip-rule="evenodd" d="M140.166 38.5841H135.065L127.171 31.3786H133.873L137.135 34.2195L145.245 11.0924H150.647L140.161 38.5884L140.166 38.5841Z" fill="#0075FF"/>
<path d="M45.6472 10.266C46.5425 9.66768 47.5928 9.36637 48.798 9.36637C49.4652 9.36637 50.085 9.46107 50.6532 9.65046C51.2299 9.83985 51.7378 10.111 52.1769 10.4683C52.6159 10.8255 52.9775 11.256 53.2573 11.7639C53.537 12.2632 53.7221 12.8357 53.8125 13.4813H58.7926C58.6334 12.1297 58.2675 10.9331 57.6993 9.8872C57.1398 8.84125 56.4123 7.95886 55.517 7.23574C54.6217 6.50831 53.593 5.95305 52.4351 5.57427C51.2816 5.1955 50.0333 5.00611 48.6818 5.00611C46.6329 5.00611 44.7907 5.47528 43.155 6.41792C41.5194 7.35196 40.2195 8.70781 39.2639 10.4898C38.3084 12.2718 37.8306 14.4326 37.8306 16.9721C37.8306 19.5116 38.2998 21.6595 39.2424 23.4415C40.1894 25.2235 41.4807 26.5836 43.1077 27.522C44.7433 28.4603 46.6028 28.9338 48.6818 28.9338C50.1754 28.9338 51.514 28.71 52.6977 28.2623C53.89 27.806 54.9101 27.1948 55.7667 26.4201C56.6318 25.641 57.3162 24.7543 57.8241 23.7686C58.3407 22.7743 58.6635 21.7456 58.7926 20.6738L53.8125 20.6523C53.7006 21.2721 53.494 21.8274 53.197 22.3137C52.9086 22.8001 52.5471 23.2134 52.1037 23.5534C51.6647 23.8891 51.1611 24.1431 50.5929 24.3153C50.0333 24.4917 49.4221 24.5778 48.7636 24.5778C47.5885 24.5778 46.5555 24.2894 45.6602 23.7127C44.7649 23.1359 44.0676 22.2836 43.5683 21.1559C43.0776 20.0282 42.8279 18.6293 42.8279 16.9721C42.8279 15.3149 43.0733 13.9849 43.5683 12.8572C44.0633 11.7208 44.7562 10.8557 45.6515 10.266H45.6472Z" fill="white"/>
<path d="M73.2981 11.7208C72.3942 11.1914 71.3397 10.9245 70.1259 10.9245C68.8001 10.9245 67.6939 11.2215 66.8159 11.8112C65.9378 12.3966 65.3007 13.2015 64.9047 14.2346H64.6981V5.33324H59.9892V28.6239H64.8359V18.526C64.8445 17.777 64.9865 17.1357 65.2663 16.6062C65.5547 16.0682 65.9507 15.6593 66.45 15.3795C66.9579 15.0997 67.5433 14.9577 68.2018 14.9577C69.1875 14.9577 69.9537 15.259 70.5003 15.8573C71.0556 16.4556 71.3268 17.2949 71.3182 18.371V28.6282H76.1648V17.5058C76.1734 16.1414 75.9238 14.9706 75.4159 13.9935C74.9166 13.0078 74.2107 12.2546 73.3025 11.7294L73.2981 11.7208Z" fill="white"/>
<path d="M91.0233 13.1327C90.2787 12.3966 89.4092 11.8457 88.4063 11.4841C87.412 11.1139 86.3402 10.9288 85.1867 10.9288C83.4735 10.9288 81.98 11.3076 80.7059 12.0652C79.4404 12.8227 78.459 13.8816 77.7617 15.2375C77.0644 16.5933 76.7158 18.173 76.7158 19.9679C76.7158 21.7628 77.0644 23.407 77.7617 24.7543C78.459 26.0972 79.4533 27.1346 80.7403 27.8706C82.0359 28.5981 83.5855 28.9639 85.3804 28.9639C86.8223 28.9639 88.0921 28.7444 89.1897 28.3054C90.2959 27.8577 91.1998 27.2379 91.8971 26.4416C92.603 25.6367 93.0679 24.6983 93.296 23.6223L88.8152 23.3253C88.6473 23.7643 88.4063 24.1345 88.0878 24.4401C87.7693 24.7414 87.3862 24.9695 86.9385 25.1245C86.4909 25.2751 86.0002 25.3526 85.4621 25.3526C84.6529 25.3526 83.9513 25.1804 83.3573 24.8404C82.7633 24.5003 82.3071 24.014 81.98 23.3855C81.6614 22.7571 81.5022 22.0081 81.5022 21.1473V21.1344H93.3993V19.8043C93.3993 18.3194 93.1927 17.0238 92.7752 15.9132C92.3576 14.7984 91.7766 13.873 91.0233 13.137V13.1327ZM81.825 18.1257C81.8551 17.4972 82.0144 16.9248 82.3071 16.4082C82.6256 15.8401 83.0646 15.3881 83.6285 15.0567C84.1967 14.7166 84.8509 14.5445 85.5827 14.5445C86.3144 14.5445 86.9041 14.6994 87.4378 15.0093C87.9759 15.3106 88.3977 15.7325 88.699 16.2705C89.0003 16.8085 89.1552 17.4284 89.1552 18.1257H81.825Z" fill="white"/>
<path d="M100.613 15.3149C101.173 14.906 101.831 14.6994 102.58 14.6994C103.467 14.6994 104.186 14.9706 104.728 15.5086C105.284 16.0381 105.624 16.7397 105.753 17.6134H110.324C110.255 16.2619 109.889 15.0868 109.222 14.0882C108.555 13.0853 107.647 12.3105 106.506 11.7553C105.361 11.2 104.027 10.9245 102.503 10.9245C100.738 10.9245 99.2144 11.3076 97.9317 12.0738C96.6491 12.8313 95.6591 13.8902 94.9618 15.2461C94.2731 16.5976 93.9287 18.1644 93.9287 19.955C93.9287 21.7456 94.2688 23.2822 94.9532 24.6424C95.6418 25.9982 96.6275 27.0614 97.9102 27.8276C99.1972 28.5851 100.738 28.9639 102.529 28.9639C104.083 28.9639 105.43 28.6798 106.566 28.1117C107.703 27.5435 108.594 26.7558 109.239 25.7443C109.893 24.7285 110.255 23.5534 110.332 22.2191H105.761C105.671 22.8346 105.477 23.3597 105.18 23.7987C104.892 24.2292 104.526 24.5606 104.078 24.7887C103.639 25.0169 103.14 25.1288 102.589 25.1288C101.84 25.1288 101.181 24.9222 100.622 24.5133C100.062 24.1043 99.6233 23.5103 99.3134 22.727C99.0121 21.9479 98.8572 20.9966 98.8572 19.8861C98.8572 18.7756 99.0121 17.8502 99.322 17.0754C99.6319 16.3006 100.067 15.7152 100.618 15.3106L100.613 15.3149Z" fill="white"/>
<path d="M127.584 11.1527H121.89L116.294 17.7813H116.031V5.33324H111.185V28.6239H116.031V23.0799L117.344 21.582L122.105 28.6282H132.431V5.33324H127.584V11.157V11.1527ZM120.968 18.7197L127.584 11.1742V28.3398L120.968 18.7197Z" fill="white"/>
<path d="M137.88 11.1527H132.788L137.88 27.2336L140.467 19.9335L137.88 11.1527Z" fill="white"/>
<path d="M6.72764 30.277L6.73629 30.2294C6.73629 30.2294 6.73197 30.2597 6.72764 30.277Z" fill="#002652"/>
<path d="M12.6762 28.2021C13.1023 28.2021 13.451 27.8534 13.451 27.4273C13.451 27.0012 13.1023 26.6525 12.6762 26.6525C12.2501 26.6525 11.9014 27.0012 11.9014 27.4273C11.9014 27.8534 12.2501 28.2021 12.6762 28.2021Z" fill="white"/>
<path d="M19.7396 26.6525C19.3135 26.6525 18.9648 27.0012 18.9648 27.4273C18.9648 27.8534 19.3135 28.2021 19.7396 28.2021C20.1657 28.2021 20.5144 27.8534 20.5144 27.4273C20.5144 27.0012 20.1657 26.6525 19.7396 26.6525Z" fill="white"/>
<path d="M6.71903 30.3329L6.73201 30.2767C6.73201 30.2767 6.72336 30.3113 6.71903 30.3329Z" fill="#002652"/>
<path d="M6.69321 30.4535L6.70186 30.4016C6.70186 30.4016 6.69321 30.4362 6.69321 30.4535Z" fill="#002652"/>
<path d="M6.63725 30.7465L6.6632 30.6168C6.65455 30.6687 6.6459 30.7119 6.63725 30.7465Z" fill="#002652"/>
<path d="M25.7226 30.4535C25.7226 30.4535 25.714 30.4189 25.714 30.4016L25.7226 30.4535Z" fill="#002652"/>
<path d="M25.6968 30.3329C25.6968 30.3329 25.6882 30.294 25.6838 30.2767L25.6968 30.3329Z" fill="#002652"/>
<path d="M25.7787 30.7465C25.77 30.7119 25.7614 30.6643 25.7527 30.6168L25.7787 30.7465Z" fill="#002652"/>
<path d="M25.6882 30.277C25.6882 30.277 25.6795 30.238 25.6795 30.2294L25.6882 30.277Z" fill="#002652"/>
<path d="M6.20252 16.1069C6.07769 16.1328 5.95717 16.1672 5.84956 16.2361C5.50522 16.4556 5.587 16.9635 5.61713 17.3121C5.67309 17.9707 5.81513 18.6336 5.9916 19.2792C6.11212 19.7269 6.25847 20.1745 6.44786 20.6006C6.66308 20.2692 6.89551 19.9636 7.14516 19.6881C7.34746 19.46 7.55407 19.2491 7.76068 19.0597C8.89271 18.0137 10.0204 17.4886 10.0204 17.4886C8.93145 16.7052 7.60572 15.8056 6.20252 16.1069Z" fill="#002652"/>
<path d="M26.2133 16.1069C26.3381 16.1328 26.4586 16.1672 26.5662 16.2361C26.9106 16.4556 26.8288 16.9635 26.7987 17.3121C26.7427 17.9707 26.6007 18.6336 26.4242 19.2792C26.3037 19.7269 26.1573 20.1745 25.9679 20.6006C25.7527 20.2692 25.5203 19.9636 25.2706 19.6881C25.0683 19.46 24.8617 19.2491 24.6551 19.0597C23.5231 18.0137 22.3953 17.4886 22.3953 17.4886C23.4843 16.7052 24.8101 15.8056 26.2133 16.1069Z" fill="#002652"/>
<path d="M30.311 2.67317C28.2062 0.568359 24.8144 0.568359 18.0394 0.568359H14.3764C7.60142 0.568359 4.20962 0.568359 2.10481 2.67317C0 4.77798 0 8.16978 0 14.9448V17.3294C0 24.1086 0 27.4961 2.10481 29.601C2.47068 29.9668 2.88389 30.281 3.33584 30.5307C3.82223 30.8019 4.35166 30.9999 4.8897 31.1505C5.16518 31.228 5.44496 31.2925 5.72904 31.3442C5.77639 31.3528 6.22404 31.4303 6.42204 31.469L6.51673 31.4862C6.51673 31.4862 6.51673 31.4819 6.51673 31.4733C6.51673 31.4518 6.52534 31.4088 6.52534 31.4002C6.52534 31.3872 6.52534 31.3743 6.52964 31.3657C6.53825 31.2969 6.55116 31.228 6.55547 31.2022C6.56838 31.1247 6.5813 31.0515 6.59421 30.9783C6.59421 30.9568 6.60282 30.9353 6.60712 30.9138L6.59421 30.9009C4.20962 28.9553 3.11632 25.5807 3.11632 25.5807C4.02453 25.5463 5.01883 25.0986 5.01883 25.0986C5.587 24.9006 6.25417 24.4831 6.37038 23.8461C6.43495 23.4931 6.2886 23.1746 6.12073 22.8733C5.59561 21.935 5.22974 20.9105 4.94996 19.8775C4.67018 18.8359 4.43775 17.7684 4.34736 16.7009C4.30001 16.1414 4.17088 15.3235 4.72614 14.9663C4.89831 14.8544 5.09631 14.7984 5.29431 14.7554C7.55837 14.269 9.70192 15.7195 11.4581 16.9807C11.4796 16.9721 11.4968 16.9635 11.5183 16.9549C11.6389 16.8946 11.768 16.8387 11.8971 16.7956C12.108 16.7224 12.3232 16.6622 12.5385 16.6191C13.55 16.3566 14.7982 16.2016 16.1498 16.2016C16.167 16.2016 16.1885 16.2016 16.2057 16.2016C16.223 16.2016 16.2445 16.2016 16.2617 16.2016C17.6176 16.2016 18.8658 16.3523 19.873 16.6191C20.0882 16.6665 20.3034 16.7224 20.5144 16.7956C20.6435 16.843 20.7683 16.8946 20.8931 16.9549C20.9147 16.9635 20.9362 16.9721 20.9534 16.9807C22.7096 15.7195 24.8531 14.2647 27.1172 14.7554C27.3152 14.7984 27.5175 14.8544 27.6853 14.9663C28.2363 15.3235 28.1072 16.1414 28.0641 16.7009C27.978 17.7684 27.7413 18.8359 27.4615 19.8775C27.1817 20.9148 26.8159 21.935 26.2907 22.8733C26.1229 23.1746 25.9765 23.4931 26.0411 23.8461C26.1573 24.4831 26.8245 24.9006 27.3927 25.0986C27.3927 25.0986 28.3869 25.5463 29.2952 25.5807C29.2952 25.5807 28.2019 28.9553 25.8173 30.9009L25.8044 30.9138C25.8044 30.9138 25.813 30.9568 25.8173 30.9783C25.8302 31.0515 25.8431 31.1247 25.856 31.2022C25.856 31.228 25.8689 31.2969 25.8818 31.3657C25.8818 31.3786 25.8818 31.3915 25.8861 31.4002C25.8861 31.4002 25.8947 31.4561 25.8947 31.4733C25.8947 31.4776 25.8947 31.4819 25.8947 31.4862L25.9894 31.469C26.1831 31.4346 26.6308 31.3528 26.6824 31.3442C26.9665 31.2925 27.2463 31.228 27.5218 31.1505C28.0598 30.9999 28.5849 30.8019 29.0756 30.5307C29.5276 30.281 29.9408 29.9668 30.3067 29.601C32.4115 27.4961 32.4115 24.1086 32.4115 17.3294V14.9448C32.4115 8.16547 32.4115 4.77798 30.3067 2.67317H30.311Z" fill="#0075FF"/>
<path d="M12.0349 32.1362C12.0392 32.1061 12.0478 32.0845 12.0521 32.0587L12.1597 31.5852C12.207 31.4002 12.2544 31.2151 12.3103 31.0343C12.4481 30.578 12.6159 30.1175 12.9431 29.7731C13.3132 29.3857 13.8341 29.1877 14.3248 28.9768C14.8154 28.7616 15.3234 28.4947 15.5859 28.0299C15.8442 27.5736 15.8184 26.9925 15.6031 26.5191C15.4611 26.2135 15.2502 25.9466 15.0048 25.7185C14.8671 25.5893 14.7164 25.4774 14.5615 25.3698C13.3175 24.5305 11.6389 24.3884 10.2658 24.9953C9.08641 25.5205 8.17819 26.5492 7.59711 27.6984C7.39911 28.0944 7.23125 28.5033 7.09351 28.9252C6.95577 29.347 6.84386 29.7774 6.74916 30.2079C6.74916 30.2079 6.74916 30.2165 6.74916 30.2294L6.74055 30.2767L6.72764 30.3327C6.72764 30.3327 6.71903 30.3757 6.71473 30.3972L6.70612 30.4489V30.4575C6.69751 30.5092 6.6846 30.5608 6.67599 30.6125L6.65016 30.7416C6.65016 30.7416 6.64586 30.7717 6.64156 30.7846C6.64156 30.7932 6.64156 30.7975 6.64156 30.8019V30.8148C6.64156 30.8277 6.63725 30.8406 6.63295 30.8492C6.63295 30.8621 6.62864 30.8793 6.62434 30.8922C6.62434 30.9138 6.61573 30.9353 6.61142 30.9568C6.59851 31.03 6.5856 31.1032 6.57269 31.1806C6.57269 31.2065 6.55977 31.2753 6.54686 31.3442C6.54686 31.3571 6.54686 31.37 6.54256 31.3786C6.54256 31.3786 6.53395 31.4346 6.53395 31.4518C6.53395 31.4561 6.53395 31.4604 6.53395 31.4647C6.57699 31.4733 6.62434 31.4776 6.66738 31.4819C6.71042 31.4862 6.75347 31.4905 6.79651 31.4992C6.85247 31.5078 6.91273 31.5121 6.96868 31.5207C7.03755 31.5293 7.11073 31.5379 7.17959 31.5465C7.26138 31.5551 7.34316 31.568 7.42494 31.5766C7.51533 31.5895 7.61003 31.5982 7.70042 31.6111C7.80372 31.624 7.90272 31.6369 8.00602 31.6498C8.11363 31.6627 8.22554 31.6799 8.33315 31.6928C8.44937 31.7101 8.56558 31.723 8.6818 31.7402C8.80232 31.7574 8.92284 31.7746 9.04336 31.7875C9.16819 31.8048 9.29301 31.822 9.41784 31.8392C9.54697 31.8564 9.67179 31.8736 9.80092 31.8951C9.93005 31.9124 10.0592 31.9339 10.1883 31.9511C10.3174 31.9726 10.4466 31.9898 10.5757 32.0114C10.7048 32.0329 10.8297 32.0501 10.9588 32.0716C11.0836 32.0931 11.2084 32.1147 11.3333 32.1362C11.4538 32.1577 11.5743 32.1792 11.6948 32.2008C11.7723 32.2137 11.8498 32.2309 11.9229 32.2438L12.0219 32.2567L12.0521 32.1147L12.0349 32.1362ZM11.9014 27.4273C11.9014 27.0011 12.2501 26.6525 12.6762 26.6525C13.1023 26.6525 13.451 27.0011 13.451 27.4273C13.451 27.8534 13.1023 28.202 12.6762 28.202C12.2501 28.202 11.9014 27.8534 11.9014 27.4273Z" fill="#002652"/>
<path d="M25.8904 31.4045C25.8904 31.3915 25.8904 31.3786 25.8861 31.37C25.8775 31.3012 25.8646 31.2323 25.8603 31.2065C25.8474 31.129 25.8345 31.0558 25.8216 30.9826C25.8216 30.9611 25.813 30.9396 25.8087 30.9181C25.8087 30.9052 25.8044 30.8879 25.8001 30.875C25.8001 30.8621 25.7957 30.8492 25.7914 30.8406V30.8277C25.7914 30.8277 25.7871 30.8191 25.7871 30.8105C25.7871 30.7976 25.7828 30.7846 25.7785 30.7674L25.7527 30.6383C25.7441 30.5909 25.7312 30.535 25.7226 30.4833V30.4747L25.714 30.4231C25.7097 30.4016 25.7054 30.3757 25.7011 30.3585L25.6881 30.3026L25.6795 30.2552V30.2337C25.5848 29.7989 25.4729 29.3685 25.3352 28.951C25.1974 28.5292 25.0296 28.1203 24.8316 27.7243C24.2505 26.5707 23.3423 25.5463 22.1629 25.0212C20.7941 24.41 19.1111 24.5563 17.8672 25.3956C17.7122 25.4989 17.5616 25.6152 17.4239 25.7443C17.1742 25.9724 16.9633 26.2393 16.8256 26.5449C16.606 27.0227 16.5845 27.6038 16.8428 28.0557C17.1053 28.5206 17.6132 28.7917 18.1039 29.0027C18.5946 29.2179 19.1155 29.4116 19.4856 29.799C19.8128 30.1433 19.9806 30.6082 20.1184 31.0601C20.1743 31.2409 20.2217 31.426 20.269 31.6111L20.3766 32.0845C20.3809 32.1104 20.3895 32.1319 20.3938 32.1577L20.424 32.3041L20.523 32.2911C20.6004 32.2782 20.6779 32.261 20.7511 32.2481C20.8716 32.2266 20.9921 32.2051 21.1127 32.1835C21.2375 32.162 21.3623 32.1405 21.4871 32.119C21.6163 32.0975 21.7411 32.0759 21.8702 32.0587C21.9993 32.0372 22.1285 32.02 22.2576 31.9985C22.3867 31.9769 22.5159 31.9597 22.645 31.9425C22.7741 31.9253 22.8989 31.9038 23.0281 31.8865C23.1529 31.8693 23.2777 31.8521 23.4025 31.8349C23.5231 31.8177 23.6436 31.8005 23.7641 31.7875C23.8803 31.7703 23.9965 31.7574 24.1128 31.7402C24.2204 31.7273 24.3323 31.7101 24.4399 31.6972C24.5432 31.6842 24.6422 31.6713 24.7455 31.6584C24.8359 31.6455 24.9306 31.6369 25.021 31.624C25.1028 31.6154 25.1845 31.6025 25.2663 31.5938C25.3352 31.5852 25.4084 31.5766 25.4772 31.568C25.5332 31.5594 25.5934 31.5551 25.6494 31.5465C25.6924 31.5422 25.7355 31.5379 25.7785 31.5293C25.8216 31.525 25.8689 31.5207 25.912 31.5121C25.912 31.5121 25.912 31.5078 25.912 31.4992C25.912 31.4776 25.9034 31.4346 25.9034 31.426L25.8904 31.4045ZM19.7396 28.202C19.3135 28.202 18.9648 27.8534 18.9648 27.4273C18.9648 27.0011 19.3135 26.6525 19.7396 26.6525C20.1657 26.6525 20.5144 27.0011 20.5144 27.4273C20.5144 27.8534 20.1657 28.202 19.7396 28.202Z" fill="#002652"/>
<path d="M18.2029 32.7345C18.1728 32.6828 18.1384 32.6312 18.1039 32.5838C18.0695 32.5365 18.0351 32.4934 18.0006 32.4461C17.9662 32.4031 17.9275 32.3643 17.8887 32.3256C17.85 32.2868 17.8112 32.2524 17.7725 32.218C17.7338 32.1835 17.695 32.1534 17.652 32.1233C17.6132 32.0931 17.5702 32.0673 17.5315 32.0415C17.4927 32.0157 17.4497 31.9942 17.4066 31.9726C17.3679 31.9511 17.3249 31.9296 17.2818 31.9124C17.2431 31.8952 17.2 31.8779 17.1613 31.8607C17.1226 31.8478 17.0838 31.8306 17.0408 31.8177C17.002 31.8048 16.9633 31.7962 16.9246 31.7832C16.8858 31.7746 16.8514 31.766 16.8126 31.7574C16.7782 31.7488 16.7438 31.7445 16.7093 31.7359C16.6749 31.7316 16.6448 31.7273 16.6103 31.723C16.5802 31.723 16.5501 31.7144 16.52 31.7144C16.4253 31.7058 16.3306 31.7015 16.2316 31.7015H16.1627C16.068 31.7015 15.9733 31.7015 15.8743 31.7144C15.8442 31.7144 15.814 31.7187 15.7839 31.723C15.7495 31.723 15.7194 31.7316 15.6849 31.7359C15.6505 31.7402 15.616 31.7488 15.5816 31.7574C15.5429 31.766 15.5084 31.7746 15.4697 31.7832C15.431 31.7918 15.3922 31.8048 15.3535 31.8177C15.3147 31.8306 15.2717 31.8435 15.233 31.8607C15.1899 31.8779 15.1512 31.8908 15.1124 31.9124C15.0694 31.9296 15.0307 31.9511 14.9876 31.9726C14.9446 31.9942 14.9058 32.02 14.8628 32.0415C14.8197 32.0673 14.781 32.0931 14.7423 32.1233C14.6992 32.1534 14.6605 32.1835 14.6218 32.218C14.583 32.2524 14.5443 32.2868 14.5055 32.3256C14.4668 32.3643 14.4281 32.4031 14.3936 32.4461C14.3549 32.4891 14.3205 32.5365 14.2903 32.5838C14.2559 32.6312 14.2215 32.6828 14.1913 32.7345C14.1612 32.7904 14.1311 32.8464 14.1009 32.9024C14.1009 32.9024 14.1009 32.911 14.1052 32.911C14.1913 33.0573 14.2946 33.1908 14.4065 33.3156C14.6218 33.5566 14.8714 33.7718 15.1555 33.9268C15.4697 34.099 15.827 34.1807 16.1842 34.1894C16.5415 34.185 16.8987 34.099 17.2129 33.9268C17.497 33.7718 17.7467 33.5566 17.9619 33.3156C18.0738 33.1908 18.1771 33.0573 18.2632 32.911L18.2675 32.9024C18.2417 32.8464 18.2115 32.7904 18.1771 32.7345H18.2029Z" fill="#002652"/>
<path d="M27.4013 25.09C26.8331 24.892 26.1659 24.4745 26.0497 23.8375C25.9851 23.4845 26.1315 23.166 26.2994 22.8647C26.8245 21.9264 27.1903 20.9019 27.4701 19.8689C27.7499 18.8273 27.9823 17.7598 28.0727 16.6923C28.1201 16.1328 28.2492 15.3149 27.6939 14.9577C27.5218 14.8458 27.3238 14.7898 27.1258 14.7468C24.8617 14.2604 22.7182 15.7109 20.962 16.9721C20.9405 16.9635 20.9233 16.9549 20.9017 16.9463C20.7812 16.886 20.6521 16.8301 20.523 16.787C20.3121 16.7138 20.0968 16.6536 19.8816 16.6105C18.8701 16.348 17.6219 16.193 16.2703 16.193C16.2703 16.193 16.2703 16.193 16.266 16.193C16.266 16.193 16.2316 16.193 16.2143 16.193C16.1971 16.193 16.1799 16.193 16.1627 16.193C16.1627 16.193 16.1627 16.193 16.1584 16.193C14.8025 16.193 13.5543 16.3437 12.5471 16.6105C12.3319 16.6579 12.1166 16.7138 11.9057 16.787C11.7766 16.8344 11.6518 16.886 11.527 16.9463C11.5054 16.9549 11.4839 16.9635 11.4667 16.9721C9.71053 15.7109 7.56698 14.2561 5.30291 14.7468C5.10492 14.7898 4.90261 14.8458 4.73475 14.9577C4.18379 15.3149 4.31292 16.1328 4.35597 16.6923C4.44205 17.7598 4.67879 18.8273 4.95857 19.8689C5.23835 20.9062 5.60422 21.9264 6.12934 22.8647C6.29721 23.166 6.44356 23.4845 6.37899 23.8375C6.26278 24.4745 5.59561 24.892 5.02744 25.09C5.02744 25.09 4.03314 25.5377 3.12493 25.5721C3.12493 25.5721 4.21823 28.9467 6.60282 30.8922L6.61573 30.9052C6.61573 30.9052 6.62003 30.875 6.62434 30.8621C6.62434 30.8492 6.62864 30.8363 6.63295 30.8277C6.63295 30.8277 6.63295 30.8191 6.63295 30.8105C6.63295 30.8062 6.63295 30.8019 6.63295 30.7932L6.64156 30.7502C6.64586 30.7244 6.65447 30.6942 6.65877 30.6598C6.65877 30.6469 6.66308 30.634 6.66738 30.6211L6.69751 30.4661V30.4575C6.69751 30.4403 6.70612 30.4231 6.70612 30.4059L6.71903 30.3413C6.71903 30.3413 6.72764 30.3026 6.73195 30.2853C6.73195 30.2638 6.74056 30.2466 6.74056 30.238V30.2165C6.83955 29.7817 6.95147 29.3513 7.0892 28.9338C7.22694 28.512 7.39481 28.1031 7.59281 27.7071C8.17389 26.5535 9.0821 25.5291 10.2615 25.0039C11.6303 24.3927 13.3132 24.5391 14.5572 25.3784C14.7121 25.4817 14.8628 25.5979 15.0005 25.7271C15.2502 25.9552 15.4611 26.2221 15.5988 26.5277C15.8184 27.0055 15.8399 27.5865 15.5816 28.0385C15.3191 28.5034 14.8111 28.7745 14.3205 28.9854C13.8298 29.2006 13.3089 29.3943 12.9388 29.7817C12.6116 30.1261 12.4438 30.5909 12.306 31.0429C12.2501 31.2237 12.2027 31.4088 12.1554 31.5938L12.0478 32.0673C12.0435 32.0931 12.0349 32.1147 12.0306 32.1405L12.0004 32.2868L14.1181 32.911C14.144 32.855 14.1741 32.7991 14.2085 32.7431C14.2387 32.6914 14.2731 32.6398 14.3075 32.5925C14.342 32.5451 14.3764 32.5021 14.4108 32.4547C14.4453 32.4117 14.484 32.3729 14.5228 32.3342C14.5615 32.2955 14.6002 32.261 14.639 32.2266C14.6777 32.1921 14.7164 32.162 14.7595 32.1319C14.7982 32.1018 14.8413 32.0759 14.88 32.0501C14.9188 32.0243 14.9618 32.0028 15.0048 31.9812C15.0436 31.9597 15.0866 31.9382 15.1297 31.921C15.1684 31.9038 15.2114 31.8865 15.2502 31.8693C15.2889 31.8564 15.3277 31.8392 15.3707 31.8263C15.4094 31.8134 15.4482 31.8048 15.4869 31.7918C15.5257 31.7832 15.5601 31.7746 15.5988 31.766C15.6333 31.7574 15.6677 31.7531 15.7021 31.7445C15.7366 31.7402 15.7667 31.7359 15.8011 31.7316C15.8313 31.7316 15.8614 31.723 15.8915 31.723C15.9862 31.7144 16.0809 31.7101 16.1799 31.7101H16.2488C16.3435 31.7101 16.4382 31.7101 16.5372 31.723C16.5673 31.723 16.5974 31.7273 16.6276 31.7316C16.662 31.7316 16.6921 31.7402 16.7266 31.7445C16.761 31.7488 16.7954 31.7574 16.8299 31.766C16.8686 31.7746 16.903 31.7832 16.9418 31.7918C16.9805 31.8005 17.0193 31.8134 17.058 31.8263C17.0967 31.8392 17.1398 31.8521 17.1785 31.8693C17.2216 31.8865 17.2603 31.8995 17.299 31.921C17.3421 31.9382 17.3808 31.9597 17.4239 31.9812C17.4669 32.0028 17.5056 32.0286 17.5487 32.0501C17.5917 32.0759 17.6305 32.1018 17.6692 32.1319C17.7123 32.162 17.751 32.1921 17.7897 32.2266C17.8285 32.261 17.8672 32.2955 17.9059 32.3342C17.9447 32.3729 17.9834 32.4117 18.0179 32.4547C18.0566 32.4978 18.091 32.5451 18.1212 32.5925C18.1556 32.6398 18.19 32.6914 18.2202 32.7431C18.2503 32.7991 18.2804 32.855 18.3105 32.911L20.4283 32.2868L20.3981 32.1448C20.3938 32.1147 20.3852 32.0931 20.3809 32.0673L20.2733 31.5938C20.226 31.4088 20.1786 31.2237 20.1227 31.0429C19.9849 30.5866 19.8171 30.1261 19.4899 29.7817C19.1198 29.3943 18.5989 29.1963 18.1082 28.9854C17.6176 28.7702 17.1096 28.5034 16.8471 28.0385C16.5888 27.5822 16.6146 27.0011 16.8299 26.5277C16.9719 26.2221 17.1828 25.9552 17.4282 25.7271C17.5659 25.5979 17.7166 25.486 17.8715 25.3784C19.1155 24.5391 20.7941 24.397 22.1672 25.0039C23.3466 25.5291 24.2548 26.5578 24.8359 27.7071C25.0339 28.1031 25.2018 28.512 25.3395 28.9338C25.4772 29.3556 25.5891 29.786 25.6838 30.2165V30.238C25.6838 30.238 25.6924 30.2681 25.6968 30.2853C25.6968 30.3026 25.7054 30.3198 25.7097 30.3413L25.7226 30.4059C25.7226 30.4059 25.7312 30.4403 25.7312 30.4575V30.4661L25.7613 30.6211C25.7699 30.6727 25.7785 30.7158 25.7871 30.7502L25.7958 30.7932C25.7958 30.7932 25.7958 30.8062 25.7958 30.8105C25.7958 30.8148 25.7958 30.8191 25.7958 30.8234C25.7958 30.8363 25.8001 30.8492 25.8044 30.8578C25.8044 30.8707 25.8087 30.8879 25.813 30.9009L25.8259 30.8879C28.2105 28.9424 29.3038 25.5678 29.3038 25.5678C28.3956 25.5334 27.4013 25.0857 27.4013 25.0857V25.09ZM7.76068 19.0554C7.55407 19.2491 7.34316 19.4557 7.14516 19.6838C6.89982 19.9636 6.66308 20.2649 6.44786 20.5963C6.25847 20.1702 6.11213 19.7269 5.9916 19.2749C5.81943 18.6293 5.67309 17.9664 5.61713 17.3078C5.587 16.9635 5.50952 16.4556 5.84956 16.2318C5.95717 16.1629 6.07769 16.1285 6.20252 16.1026C7.60572 15.8013 8.93145 16.7009 10.0204 17.4843C10.0204 17.4843 8.89271 18.0051 7.76068 19.0554ZM25.2749 19.6838C25.0726 19.4557 24.866 19.2448 24.6594 19.0554C23.5274 18.0094 22.3996 17.4843 22.3996 17.4843C23.4886 16.7009 24.8144 15.8013 26.2176 16.1026C26.3424 16.1285 26.4629 16.1629 26.5705 16.2318C26.9149 16.4513 26.8331 16.9592 26.803 17.3078C26.747 17.9664 26.605 18.6293 26.4285 19.2749C26.308 19.7226 26.1616 20.1702 25.9722 20.5963C25.757 20.2649 25.5246 19.9593 25.2749 19.6838Z" fill="white"/>
</svg>
